<?xml version="1.0" encoding="UTF-8" standalone="no"?>
<!DOCTYPE svg PUBLIC "-//W3C//DTD SVG 1.1//EN" "http://www.w3.org/Graphics/SVG/1.1/DTD/svg11.dtd">
<!-- Created with Vectornator (http://vectornator.io/) -->
<svg height="100%" stroke-miterlimit="10" style="fill-rule:nonzero;clip-rule:evenodd;stroke-linecap:round;stroke-linejoin:round;" version="1.1" viewBox="0 0 841.995 595.35" width="100%" xml:space="preserve" xmlns="http://www.w3.org/2000/svg" xmlns:vectornator="http://vectornator.io" xmlns:xlink="http://www.w3.org/1999/xlink">
<defs/>
<g id="Слой-1" vectornator:layerName="Слой 1">
<g opacity="1" vectornator:layerName="Группа 1">
<g opacity="1" vectornator:layerName="Группа 1">
<path d="M0 334.105L224.342 334.105L224.342 354.729L0 354.729L0 334.105Z" fill="#d27118" fill-rule="nonzero" opacity="1" stroke="#d46a1b" stroke-linecap="butt" stroke-linejoin="round" stroke-opacity="0" stroke-width="10" vectornator:layerName="Прямоугольник 1"/>
</g>
</g>
<g opacity="1" vectornator:layerName="Группа 2">
<g opacity="1" vectornator:layerName="Группа 1">
<path d="M0 298.943L224.342 298.943L224.342 319.566L0 319.566L0 298.943Z" fill="#d27118" fill-rule="nonzero" opacity="1" stroke="#d46a1b" stroke-linecap="butt" stroke-linejoin="round" stroke-opacity="0" stroke-width="10" vectornator:layerName="Прямоугольник 1"/>
</g>
</g>
<path d="M27.9681 310.346C27.495 306.614 27.251 302.808 27.251 298.943C27.251 250.7 65.2709 211.591 112.171 211.591C159.071 211.591 197.091 250.7 197.091 298.943" fill="#d46a1b" fill-opacity="0" fill-rule="nonzero" opacity="1" stroke="#d27118" stroke-linecap="butt" stroke-linejoin="round" stroke-width="18.2613" vectornator:layerName="Кривая 2"/>
<path d="M94.0812 180.461C94.0812 170.184 102.18 161.853 112.171 161.853C122.162 161.853 130.261 170.184 130.261 180.461C130.261 190.738 122.162 199.069 112.171 199.069C102.18 199.069 94.0812 190.738 94.0812 180.461Z" fill="#d46a1b" fill-opacity="0" fill-rule="nonzero" opacity="1" stroke="#d27118" stroke-linecap="butt" stroke-linejoin="round" stroke-width="10" vectornator:layerName="Овал 1"/>
<g fill="#000000" opacity="1" stroke="none" vectornator:layerName="Текст 1">
<path d="M264.163 236.38L351.542 236.38L351.542 251.065L279.991 251.065L279.991 287.452L346.157 287.452L346.157 301.322L279.991 301.322L279.991 341.951L352.765 341.951L352.765 356.229L264.163 356.229L264.163 236.38Z"/>
<path d="M368.267 302.138L409.223 302.138L409.223 317.231L368.267 317.231L368.267 302.138Z"/>
<path d="M461.437 266.322C471.282 266.322 479.291 268.715 485.464 273.501C491.638 278.287 495.35 286.528 496.601 298.221L482.323 298.221C481.453 292.837 479.468 288.363 476.368 284.801C473.267 281.238 468.291 279.457 461.437 279.457C452.082 279.457 445.392 284.026 441.367 293.163C438.757 299.092 437.451 306.407 437.451 315.11C437.451 323.867 439.3 331.236 442.999 337.219C446.698 343.202 452.517 346.194 460.458 346.194C466.55 346.194 471.377 344.331 474.94 340.605C478.502 336.879 480.964 331.78 482.323 325.308L496.601 325.308C494.969 336.893 490.89 345.364 484.363 350.722C477.836 356.079 469.487 358.758 459.316 358.758C447.894 358.758 438.784 354.584 431.985 346.235C425.186 337.886 421.787 327.456 421.787 314.947C421.787 299.608 425.513 287.67 432.964 279.13C440.415 270.591 449.907 266.322 461.437 266.322Z"/>
<path d="M545.96 346.765C555.696 346.765 562.372 343.08 565.989 335.71C569.606 328.34 571.415 320.141 571.415 311.112C571.415 302.953 570.109 296.318 567.499 291.205C563.365 283.155 556.24 279.13 546.123 279.13C537.149 279.13 530.622 282.557 526.543 289.41C522.463 296.263 520.424 304.531 520.424 314.212C520.424 323.513 522.463 331.264 526.543 337.464C530.622 343.665 537.094 346.765 545.96 346.765ZM546.531 266.322C557.79 266.322 567.308 270.074 575.086 277.58C582.864 285.086 586.753 296.127 586.753 310.704C586.753 324.791 583.326 336.431 576.473 345.623C569.62 354.815 558.987 359.411 544.573 359.411C532.553 359.411 523.007 355.345 515.937 347.214C508.866 339.082 505.33 328.163 505.33 314.457C505.33 299.772 509.056 288.078 516.508 279.375C523.959 270.673 533.967 266.322 546.531 266.322Z"/>
<path d="M638.886 346.765C648.622 346.765 655.298 343.08 658.915 335.71C662.532 328.34 664.341 320.141 664.341 311.112C664.341 302.953 663.035 296.318 660.425 291.205C656.291 283.155 649.166 279.13 639.049 279.13C630.075 279.13 623.548 282.557 619.469 289.41C615.389 296.263 613.35 304.531 613.35 314.212C613.35 323.513 615.389 331.264 619.469 337.464C623.548 343.665 630.02 346.765 638.886 346.765ZM639.457 266.322C650.716 266.322 660.234 270.074 668.012 277.58C675.79 285.086 679.679 296.127 679.679 310.704C679.679 324.791 676.252 336.431 669.399 345.623C662.546 354.815 651.913 359.411 637.499 359.411C625.479 359.411 615.933 355.345 608.863 347.214C601.792 339.082 598.256 328.163 598.256 314.457C598.256 299.772 601.982 288.078 609.434 279.375C616.885 270.673 626.893 266.322 639.457 266.322Z"/>
<path d="M696.812 236.38L710.926 236.38L710.926 305.972L748.619 268.851L767.383 268.851L733.933 301.567L769.26 356.229L750.495 356.229L723.246 312.173L710.926 323.431L710.926 356.229L696.812 356.229L696.812 236.38Z"/>
</g>
</g>
<g id="Слой-1-скопировать" vectornator:layerName="Слой 1 скопировать" visibility="hidden">
<g opacity="1" vectornator:layerName="Группа 1">
<g opacity="1" vectornator:layerName="Группа 1">
<path d="M0 334.105L224.342 334.105L224.342 354.729L0 354.729L0 334.105Z" fill="#d27118" fill-rule="nonzero" opacity="1" stroke="#d46a1b" stroke-linecap="butt" stroke-linejoin="round" stroke-opacity="0" stroke-width="10" vectornator:layerName="Прямоугольник 1"/>
</g>
</g>
<g opacity="1" vectornator:layerName="Группа 2">
<g opacity="1" vectornator:layerName="Группа 1">
<path d="M0 298.943L224.342 298.943L224.342 319.566L0 319.566L0 298.943Z" fill="#d27118" fill-rule="nonzero" opacity="1" stroke="#d46a1b" stroke-linecap="butt" stroke-linejoin="round" stroke-opacity="0" stroke-width="10" vectornator:layerName="Прямоугольник 1"/>
</g>
</g>
<path d="M27.9681 310.346C27.495 306.614 27.251 302.808 27.251 298.943C27.251 250.7 65.2709 211.591 112.171 211.591C159.071 211.591 197.091 250.7 197.091 298.943" fill="#d46a1b" fill-opacity="0" fill-rule="nonzero" opacity="1" stroke="#d27118" stroke-linecap="butt" stroke-linejoin="round" stroke-width="18.2613" vectornator:layerName="Кривая 2"/>
<path d="M94.0812 180.461C94.0812 170.184 102.18 161.853 112.171 161.853C122.162 161.853 130.261 170.184 130.261 180.461C130.261 190.738 122.162 199.069 112.171 199.069C102.18 199.069 94.0812 190.738 94.0812 180.461Z" fill="#d46a1b" fill-opacity="0" fill-rule="nonzero" opacity="1" stroke="#d27118" stroke-linecap="butt" stroke-linejoin="round" stroke-width="10" vectornator:layerName="Овал 1"/>
<g fill="#a7a6a5" opacity="1" stroke="none" vectornator:layerName="Текст 1">
<path d="M264.163 236.38L351.542 236.38L351.542 251.065L279.991 251.065L279.991 287.452L346.157 287.452L346.157 301.322L279.991 301.322L279.991 341.951L352.765 341.951L352.765 356.229L264.163 356.229L264.163 236.38Z"/>
<path d="M368.267 302.138L409.223 302.138L409.223 317.231L368.267 317.231L368.267 302.138Z"/>
<path d="M461.437 266.322C471.282 266.322 479.291 268.715 485.464 273.501C491.638 278.287 495.35 286.528 496.601 298.221L482.323 298.221C481.453 292.837 479.468 288.363 476.368 284.801C473.267 281.238 468.291 279.457 461.437 279.457C452.082 279.457 445.392 284.026 441.367 293.163C438.757 299.092 437.451 306.407 437.451 315.11C437.451 323.867 439.3 331.236 442.999 337.219C446.698 343.202 452.517 346.194 460.458 346.194C466.55 346.194 471.377 344.331 474.94 340.605C478.502 336.879 480.964 331.78 482.323 325.308L496.601 325.308C494.969 336.893 490.89 345.364 484.363 350.722C477.836 356.079 469.487 358.758 459.316 358.758C447.894 358.758 438.784 354.584 431.985 346.235C425.186 337.886 421.787 327.456 421.787 314.947C421.787 299.608 425.513 287.67 432.964 279.13C440.415 270.591 449.907 266.322 461.437 266.322Z"/>
<path d="M545.96 346.765C555.696 346.765 562.372 343.08 565.989 335.71C569.606 328.34 571.415 320.141 571.415 311.112C571.415 302.953 570.109 296.318 567.499 291.205C563.365 283.155 556.24 279.13 546.123 279.13C537.149 279.13 530.622 282.557 526.543 289.41C522.463 296.263 520.424 304.531 520.424 314.212C520.424 323.513 522.463 331.264 526.543 337.464C530.622 343.665 537.094 346.765 545.96 346.765ZM546.531 266.322C557.79 266.322 567.308 270.074 575.086 277.58C582.864 285.086 586.753 296.127 586.753 310.704C586.753 324.791 583.326 336.431 576.473 345.623C569.62 354.815 558.987 359.411 544.573 359.411C532.553 359.411 523.007 355.345 515.937 347.214C508.866 339.082 505.33 328.163 505.33 314.457C505.33 299.772 509.056 288.078 516.508 279.375C523.959 270.673 533.967 266.322 546.531 266.322Z"/>
<path d="M638.886 346.765C648.622 346.765 655.298 343.08 658.915 335.71C662.532 328.34 664.341 320.141 664.341 311.112C664.341 302.953 663.035 296.318 660.425 291.205C656.291 283.155 649.166 279.13 639.049 279.13C630.075 279.13 623.548 282.557 619.469 289.41C615.389 296.263 613.35 304.531 613.35 314.212C613.35 323.513 615.389 331.264 619.469 337.464C623.548 343.665 630.02 346.765 638.886 346.765ZM639.457 266.322C650.716 266.322 660.234 270.074 668.012 277.58C675.79 285.086 679.679 296.127 679.679 310.704C679.679 324.791 676.252 336.431 669.399 345.623C662.546 354.815 651.913 359.411 637.499 359.411C625.479 359.411 615.933 355.345 608.863 347.214C601.792 339.082 598.256 328.163 598.256 314.457C598.256 299.772 601.982 288.078 609.434 279.375C616.885 270.673 626.893 266.322 639.457 266.322Z"/>
<path d="M696.812 236.38L710.926 236.38L710.926 305.972L748.619 268.851L767.383 268.851L733.933 301.567L769.26 356.229L750.495 356.229L723.246 312.173L710.926 323.431L710.926 356.229L696.812 356.229L696.812 236.38Z"/>
</g>
</g>
</svg>
